<svg width="640" height="640" xmlns="http://www.w3.org/2000/svg" clip-rule="evenodd" fill-rule="evenodd" image-rendering="optimizeQuality" text-rendering="geometricPrecision" shape-rendering="geometricPrecision">

 <g>
  <title>Layer 1</title>
  <path stroke="#f6ad7b" fill="#f6ad7b" id="svg_1" d="m319.988,7.973c-176.695,0 -319.988,143.269 -319.988,319.987c0,141.392 91.678,261.298 218.826,303.63c16.004,2.964 21.886,-6.957 21.886,-15.414c0,-7.63 -0.319,-32.835 -0.449,-59.552c-89.032,19.359 -107.8,-37.772 -107.8,-37.772c-14.552,-36.993 -35.529,-46.831 -35.529,-46.831c-29.032,-19.879 2.209,-19.442 2.209,-19.442c32.126,2.245 49.04,32.954 49.04,32.954c28.56,48.922 74.883,34.76 93.131,26.598c2.882,-20.681 11.15,-34.807 20.315,-42.803c-71.08,-8.067 -145.797,-35.516 -145.797,-158.14c0,-34.926 12.52,-63.485 32.965,-85.88c-3.33,-8.078 -14.291,-40.606 3.083,-84.674c0,0 26.87,-8.61 88.029,32.8c25.512,-7.075 52.878,-10.642 80.056,-10.76c27.2,0.118 54.614,3.673 80.162,10.76c61.076,-41.386 87.922,-32.8 87.922,-32.8c17.398,44.08 6.485,76.631 3.154,84.675c20.516,22.394 32.93,50.953 32.93,85.879c0,122.907 -74.883,149.93 -146.117,157.856c11.481,9.921 21.733,29.398 21.733,59.233c0,42.792 -0.366,77.28 -0.366,87.804c0,8.516 5.764,18.473 21.992,15.354c127.076,-42.354 218.637,-162.274 218.637,-303.582c0,-176.695 -143.269,-319.988 -320,-319.988l-0.023,0.107l-0.001,0.001z"/>
 </g>
</svg>