<svg width="640" height="640" xmlns="http://www.w3.org/2000/svg" clip-rule="evenodd" fill-rule="evenodd" image-rendering="optimizeQuality" text-rendering="geometricPrecision" shape-rendering="geometricPrecision">

 <g>
  <title>Layer 1</title>
  <path fill="#f6ad7b" id="svg_1" d="m228.582,205.715l126.462,0l0,64.832l1.83,0c17.611,-31.595 60.675,-64.832 124.892,-64.832c133.537,0 158.234,83.103 158.234,191.211l0,220.219l-131.884,0l0,-195.215c0,-46.536 -0.969,-106.442 -68.576,-106.442c-68.67,0 -79.194,50.658 -79.194,103.052l0,198.605l-131.765,0l0,-411.43l0.001,0zm-91.43,-114.285c0,37.855 -30.721,68.576 -68.576,68.576c-37.855,0 -68.587,-30.721 -68.587,-68.576c0,-37.855 30.732,-68.576 68.587,-68.576c37.855,0 68.576,30.721 68.576,68.576zm-137.163,114.285l137.163,0l0,411.43l-137.163,0l0,-411.43z"/>
 </g>
</svg>