<svg width="38" height="40" viewBox="0 0 38 40" fill="none" xmlns="http://www.w3.org/2000/svg">
<ellipse cx="19" cy="20" rx="19" ry="20" fill="#ED6BC8"/>
<path d="M10.0568 16.2727H11.3182L14.2841 23.517H14.3864L17.3523 16.2727H18.6136V25H17.625V18.3693H17.5398L14.8125 25H13.858L11.1307 18.3693H11.0455V25H10.0568V16.2727ZM20.5962 25V18.4545H21.6019V25H20.5962ZM21.1076 17.3636C20.9116 17.3636 20.7425 17.2969 20.6005 17.1634C20.4613 17.0298 20.3917 16.8693 20.3917 16.6818C20.3917 16.4943 20.4613 16.3338 20.6005 16.2003C20.7425 16.0668 20.9116 16 21.1076 16C21.3036 16 21.4712 16.0668 21.6104 16.2003C21.7525 16.3338 21.8235 16.4943 21.8235 16.6818C21.8235 16.8693 21.7525 17.0298 21.6104 17.1634C21.4712 17.2969 21.3036 17.3636 21.1076 17.3636ZM25.37 25.1534C24.9553 25.1534 24.5788 25.0753 24.2408 24.919C23.9027 24.7599 23.6342 24.5312 23.4354 24.233C23.2365 23.9318 23.1371 23.5682 23.1371 23.142C23.1371 22.767 23.2109 22.4631 23.3587 22.2301C23.5064 21.9943 23.7038 21.8097 23.951 21.6761C24.1982 21.5426 24.4709 21.4432 24.7692 21.3778C25.0703 21.3097 25.3729 21.2557 25.6768 21.2159C26.0746 21.1648 26.397 21.1264 26.6442 21.1009C26.8942 21.0724 27.076 21.0256 27.1896 20.9602C27.3061 20.8949 27.3643 20.7812 27.3643 20.6193V20.5852C27.3643 20.1648 27.2493 19.8381 27.0192 19.6051C26.7919 19.3722 26.4467 19.2557 25.9837 19.2557C25.5036 19.2557 25.1271 19.3608 24.8544 19.571C24.5817 19.7812 24.3899 20.0057 24.2791 20.2443L23.3246 19.9034C23.495 19.5057 23.7223 19.196 24.0064 18.9744C24.2933 18.75 24.6058 18.5937 24.9439 18.5057C25.2848 18.4148 25.62 18.3693 25.9496 18.3693C26.1598 18.3693 26.4013 18.3949 26.674 18.446C26.9496 18.4943 27.2152 18.5952 27.4709 18.7486C27.7294 18.902 27.9439 19.1335 28.1143 19.4432C28.2848 19.7528 28.37 20.1676 28.37 20.6875V25H27.3643V24.1136H27.3132C27.245 24.2557 27.1314 24.4077 26.9723 24.5696C26.8132 24.7315 26.6016 24.8693 26.3374 24.983C26.0732 25.0966 25.7507 25.1534 25.37 25.1534ZM25.5234 24.25C25.9212 24.25 26.2564 24.1719 26.5291 24.0156C26.8047 23.8594 27.0121 23.6577 27.1513 23.4105C27.2933 23.1634 27.3643 22.9034 27.3643 22.6307V21.7102C27.3217 21.7614 27.228 21.8082 27.0831 21.8509C26.9411 21.8906 26.7763 21.9261 26.5888 21.9574C26.4041 21.9858 26.2237 22.0114 26.0476 22.0341C25.8743 22.054 25.7337 22.071 25.6257 22.0852C25.3643 22.1193 25.12 22.1747 24.8928 22.2514C24.6683 22.3253 24.4865 22.4375 24.3473 22.5881C24.2109 22.7358 24.1428 22.9375 24.1428 23.1932C24.1428 23.5426 24.272 23.8068 24.5305 23.9858C24.7919 24.1619 25.1229 24.25 25.5234 24.25Z" fill="white"/>
</svg>
