<svg width="640" height="640" xmlns="http://www.w3.org/2000/svg" clip-rule="evenodd" fill-rule="evenodd" image-rendering="optimizeQuality" text-rendering="geometricPrecision" shape-rendering="geometricPrecision">

 <g>
  <title>Layer 1</title>
  <path fill="#f6ad7b" id="svg_1" d="m640,400.009l0,239.991l-640,0l0,-239.991l79.997,0l0,159.994l480.006,0l0,-159.994l79.997,0zm-519.999,40.004l399.997,0l0,79.997l-399.997,-0.01l0,-79.986l0,-0.001zm9.484,-86.623l17.316,-78.107l390.524,86.564l-17.327,78.12l-390.513,-86.577zm45.32,-160.549l33.803,-72.52l362.52,169.03l-33.803,72.532l-362.52,-169.04l0,-0.002zm445.033,33.083l-48.721,63.474l-317.367,-243.523l35.198,-45.875l36.414,0l294.476,225.924z"/>
 </g>
</svg>