<svg xmlns="http://www.w3.org/2000/svg" width="35.082" height="37.748" viewBox="0 0 35.082 37.748"><defs><style>.a{fill:#fff;}</style></defs><path class="a" d="M16.166,34.457A1.715,1.715,0,0,0,14.14,32.77c-2.246.412-5.081.474-5.835-1.643a9.79,9.79,0,0,0-3.151-4.143,2.059,2.059,0,0,1-.286-.188,1.715,1.715,0,0,0-1.6-1.107H3.264A1.715,1.715,0,0,0,1.549,27.4c-.007,1.4,1.391,2.295,1.958,2.6a7.618,7.618,0,0,1,1.585,2.332c.625,1.756,2.441,4.419,7.66,4.076,0,.06,0,.117,0,.169l.008.459a1.715,1.715,0,1,0,3.431,0l-.008-.546C16.178,36.159,16.166,35.688,16.166,34.457ZM34.464,8.51c.054-.214.108-.452.155-.72a10.769,10.769,0,0,0-.7-5.649,1.719,1.719,0,0,0-1.056-1C32.252.94,30,.535,25.685,3.29a23.791,23.791,0,0,0-10.9,0C10.492.575,8.249.943,7.644,1.138a1.711,1.711,0,0,0-1.083,1A10.807,10.807,0,0,0,5.869,7.9c.042.219.087.422.134.608A10.754,10.754,0,0,0,3.85,15.073a14.446,14.446,0,0,0,.073,1.581c.573,7.9,5.719,10.265,9.3,11.08-.075.214-.142.444-.2.687a1.716,1.716,0,1,0,3.332.821,2.879,2.879,0,0,1,.8-1.506,1.714,1.714,0,0,0-.936-2.994c-5.925-.677-8.5-3.091-8.884-8.4a11.34,11.34,0,0,1-.058-1.266A7.3,7.3,0,0,1,8.858,10.42a5.184,5.184,0,0,1,.336-.4,1.715,1.715,0,0,0,.322-1.757,5.811,5.811,0,0,1-.266-.953,7.022,7.022,0,0,1,.135-2.771,12.938,12.938,0,0,1,4.143,2.024,1.73,1.73,0,0,0,1.42.228,20.2,20.2,0,0,1,10.589,0,1.725,1.725,0,0,0,1.425-.236,12.989,12.989,0,0,1,4.126-2.042,6.93,6.93,0,0,1,.15,2.707,5.5,5.5,0,0,1-.29,1.042,1.715,1.715,0,0,0,.322,1.757c.132.149.265.31.384.461a7.07,7.07,0,0,1,1.547,4.59,12.073,12.073,0,0,1-.064,1.333c-.378,5.242-2.96,7.657-8.913,8.336a1.715,1.715,0,0,0-.936,3,2.8,2.8,0,0,1,.8,1.558,5.25,5.25,0,0,1,.158,1.405v4c-.017,1.111-.017,1.943-.017,2.325a1.715,1.715,0,1,0,3.431,0c0-.372,0-1.188.017-2.3V30.7a8.374,8.374,0,0,0-.266-2.25,7.3,7.3,0,0,0-.2-.714,11.171,11.171,0,0,0,9.341-11.019,14.917,14.917,0,0,0,.079-1.645A10.516,10.516,0,0,0,34.464,8.51Z" transform="translate(-1.549 -0.997)"/></svg>