<svg width="150" height="150" viewBox="0 0 150 150" fill="none" xmlns="http://www.w3.org/2000/svg">
<path fill-rule="evenodd" clip-rule="evenodd" d="M76 33.5789C53.9 33.5789 36 51.9316 36 74.5906C36 92.7383 47.45 108.066 63.35 113.501C65.35 113.859 66.1 112.629 66.1 111.552C66.1 110.578 66.05 107.349 66.05 103.914C56 105.811 53.4 101.402 52.6 99.0951C52.15 97.916 50.2 94.2762 48.5 93.3022C47.1 92.5333 45.1 90.6365 48.45 90.5852C51.6 90.5339 53.85 93.5585 54.6 94.7889C58.2 100.992 63.95 99.2489 66.25 98.1724C66.6 95.5066 67.65 93.7123 68.8 92.687C59.9 91.6618 50.6 88.1245 50.6 72.4375C50.6 67.9775 52.15 64.2864 54.7 61.4156C54.3 60.3903 52.9 56.1866 55.1 50.5475C55.1 50.5475 58.45 49.4709 66.1 54.7512C69.3 53.8284 72.7 53.367 76.1 53.367C79.5 53.367 82.9 53.8284 86.1 54.7512C93.75 49.4196 97.1 50.5475 97.1 50.5475C99.3 56.1866 97.9 60.3903 97.5 61.4156C100.05 64.2864 101.6 67.9262 101.6 72.4375C101.6 88.1758 92.25 91.6618 83.35 92.687C84.8 93.9687 86.05 96.4294 86.05 100.274C86.05 105.76 86 110.168 86 111.552C86 112.629 86.75 113.911 88.75 113.501C96.6906 110.752 103.591 105.519 108.479 98.5393C113.367 91.5594 115.998 83.1835 116 74.5906C116 51.9316 98.1 33.5789 76 33.5789Z" fill="white"/>
<circle cx="75" cy="75" r="73.5" stroke="white" stroke-width="3"/>
</svg>
