<svg width="32" height="32" viewBox="0 0 32 32" fill="none" xmlns="http://www.w3.org/2000/svg">
<g clip-path="url(#clip0_3_10)">
<path fill-rule="evenodd" clip-rule="evenodd" d="M16 32C24.8366 32 32 24.8366 32 16C32 7.16344 24.8366 0 16 0C7.16344 0 0 7.16344 0 16C0 24.8366 7.16344 32 16 32ZM8.2207 23.6423V12.4133H11.953V23.6423H8.2207ZM10.0869 10.8798H10.0629C8.80959 10.8798 8 10.0165 8 8.93935C8 7.83818 8.83475 7 10.1109 7C11.387 7 12.1737 7.83818 12.1977 8.93935C12.1977 10.0177 11.387 10.8798 10.0869 10.8798ZM25.4107 23.6423H21.6784V17.6344C21.6784 16.125 21.1386 15.0959 19.787 15.0959C18.7568 15.0959 18.1427 15.79 17.8728 16.4612C17.7745 16.7013 17.7494 17.0364 17.7494 17.3714V23.6423H14.0182C14.0182 23.6423 14.0673 13.4675 14.0182 12.4133H17.7505V14.0038C18.2456 13.2389 19.133 12.1491 21.1146 12.1491C23.5697 12.1491 25.4107 13.7546 25.4107 17.2033V23.6423Z" fill="white"/>
</g>
<defs>
<clipPath id="clip0_3_10">
<rect width="32" height="32" fill="white"/>
</clipPath>
</defs>
</svg>
