<svg width="60" height="29" viewBox="0 0 60 29" fill="none" xmlns="http://www.w3.org/2000/svg">
<rect width="60" height="29" fill="#FDDFE7"/>
<path d="M20.7913 17.0312H16.0256L14.9553 20H13.4084L17.7522 8.625H19.0647L23.4163 20H21.8772L20.7913 17.0312ZM16.4788 15.7969H20.3459L18.4084 10.4766L16.4788 15.7969ZM26.6075 15.5469V20H25.1075V8.625H29.3028C30.5476 8.625 31.5216 8.94271 32.2247 9.57812C32.933 10.2135 33.2872 11.0547 33.2872 12.1016C33.2872 13.2057 32.9408 14.0573 32.2481 14.6562C31.5606 15.25 30.5736 15.5469 29.2872 15.5469H26.6075ZM26.6075 14.3203H29.3028C30.1049 14.3203 30.7195 14.1328 31.1466 13.7578C31.5736 13.3776 31.7872 12.8307 31.7872 12.1172C31.7872 11.4401 31.5736 10.8984 31.1466 10.4922C30.7195 10.0859 30.1335 9.875 29.3888 9.85938H26.6075V14.3203ZM36.9706 20H35.4706V8.625H36.9706V20ZM44.5759 17.7578C44.5759 17.3672 44.4275 17.0651 44.1306 16.8516C43.839 16.6328 43.3259 16.4453 42.5916 16.2891C41.8624 16.1328 41.2817 15.9453 40.8494 15.7266C40.4223 15.5078 40.1046 15.2474 39.8962 14.9453C39.6931 14.6432 39.5916 14.2839 39.5916 13.8672C39.5916 13.1745 39.8832 12.5885 40.4666 12.1094C41.0551 11.6302 41.8051 11.3906 42.7166 11.3906C43.6749 11.3906 44.4509 11.638 45.0447 12.1328C45.6436 12.6276 45.9431 13.2604 45.9431 14.0312H44.49C44.49 13.6354 44.3207 13.2943 43.9822 13.0078C43.6489 12.7214 43.227 12.5781 42.7166 12.5781C42.1905 12.5781 41.7791 12.6927 41.4822 12.9219C41.1853 13.151 41.0369 13.4505 41.0369 13.8203C41.0369 14.1693 41.1749 14.4323 41.4509 14.6094C41.727 14.7865 42.2244 14.9557 42.9431 15.1172C43.6671 15.2786 44.253 15.4714 44.7009 15.6953C45.1489 15.9193 45.4796 16.1901 45.6931 16.5078C45.9119 16.8203 46.0212 17.2031 46.0212 17.6562C46.0212 18.4115 45.7192 19.0182 45.115 19.4766C44.5108 19.9297 43.727 20.1562 42.7634 20.1562C42.0864 20.1562 41.4874 20.0365 40.9666 19.7969C40.4457 19.5573 40.0369 19.224 39.74 18.7969C39.4483 18.3646 39.3025 17.8984 39.3025 17.3984H40.7478C40.7739 17.8828 40.9666 18.2682 41.3259 18.5547C41.6905 18.8359 42.1697 18.9766 42.7634 18.9766C43.3103 18.9766 43.7478 18.8672 44.0759 18.6484C44.4093 18.4245 44.5759 18.1276 44.5759 17.7578Z" fill="black"/>
</svg>
