<?xml version="1.0" encoding="UTF-8"?>
<svg width="752pt" height="752pt" version="1.1" viewBox="0 0 752 752" xmlns="http://www.w3.org/2000/svg">
 <g fill="#fff">
  <path d="m586.7 339.96-155.38-155.33c-12.301-12.301-30.23-17.105-47.031-12.605-16.805 4.5039-29.93 17.629-34.43 34.43-4.5039 16.805 0.30078 34.734 12.602 47.031l122.47 122.52-122.47 122.52c-9.1328 9.1328-14.262 21.516-14.262 34.43 0 12.914 5.1289 25.301 14.262 34.43 9.1328 9.1328 21.516 14.262 34.43 14.262 12.914 0 25.297-5.1289 34.43-14.262l155.38-155.34c9.1367-9.1406 14.25-21.551 14.207-34.477v-1.5625c0.45312-13.461-4.6914-26.508-14.207-36.039z"/>
  <path d="m403.8 377.56v-1.5625c0.45312-13.461-4.6914-26.508-14.207-36.039l-155.43-155.33c-12.301-12.301-30.23-17.105-47.031-12.605-16.805 4.5039-29.926 17.629-34.43 34.43-4.5039 16.805 0.30078 34.734 12.602 47.031l122.52 122.52-122.52 122.52c-9.1289 9.1328-14.262 21.516-14.262 34.43 0 12.914 5.1328 25.301 14.262 34.43 9.1328 9.1328 21.516 14.262 34.43 14.262s25.297-5.1289 34.43-14.262l155.38-155.34c9.1367-9.1445 14.262-21.547 14.254-34.477z"/>
 </g>
</svg>
