<svg width="34" height="21" viewBox="0 0 34 21" fill="none" xmlns="http://www.w3.org/2000/svg">
<rect width="34" height="21" fill="#FDDFE7"/>
<path d="M11.5125 11.9697C11.4334 12.6465 11.1829 13.1694 10.761 13.5386C10.3421 13.9048 9.78395 14.0879 9.08668 14.0879C8.33082 14.0879 7.72437 13.8169 7.26734 13.2749C6.81324 12.7329 6.58619 12.0078 6.58619 11.0996V10.4844C6.58619 9.88965 6.69166 9.3667 6.9026 8.91553C7.11646 8.46436 7.41822 8.11865 7.80787 7.87842C8.19752 7.63525 8.64869 7.51367 9.16139 7.51367C9.84107 7.51367 10.386 7.7041 10.7962 8.08496C11.2063 8.46289 11.4451 8.9873 11.5125 9.6582H10.6643C10.5911 9.14844 10.4314 8.7793 10.1853 8.55078C9.94215 8.32227 9.60084 8.20801 9.16139 8.20801C8.62232 8.20801 8.19898 8.40723 7.89137 8.80566C7.58668 9.2041 7.43434 9.771 7.43434 10.5063V11.126C7.43434 11.8203 7.57936 12.3726 7.86939 12.7827C8.15943 13.1929 8.5652 13.3979 9.08668 13.3979C9.55543 13.3979 9.91432 13.2925 10.1633 13.0815C10.4153 12.8677 10.5823 12.4971 10.6643 11.9697H11.5125ZM14.6435 11.1479C13.9198 10.9399 13.3925 10.6851 13.0614 10.3833C12.7333 10.0786 12.5693 9.70361 12.5693 9.2583C12.5693 8.75439 12.7699 8.33838 13.1713 8.01025C13.5756 7.6792 14.1 7.51367 14.7446 7.51367C15.184 7.51367 15.5751 7.59863 15.9179 7.76855C16.2636 7.93848 16.5302 8.17285 16.7177 8.47168C16.9081 8.77051 17.0033 9.09717 17.0033 9.45166H16.1552C16.1552 9.06494 16.0321 8.76172 15.7861 8.54199C15.54 8.31934 15.1928 8.20801 14.7446 8.20801C14.3285 8.20801 14.0033 8.30029 13.769 8.48486C13.5375 8.6665 13.4218 8.91992 13.4218 9.24512C13.4218 9.50586 13.5317 9.72705 13.7514 9.90869C13.974 10.0874 14.3505 10.2515 14.8808 10.4009C15.414 10.5503 15.83 10.7158 16.1288 10.8975C16.4306 11.0762 16.6532 11.2856 16.7968 11.5259C16.9433 11.7661 17.0165 12.0488 17.0165 12.374C17.0165 12.8926 16.8144 13.3086 16.4101 13.6221C16.0058 13.9326 15.4653 14.0879 14.7885 14.0879C14.349 14.0879 13.9389 14.0044 13.558 13.8374C13.1772 13.6675 12.8827 13.436 12.6747 13.1431C12.4696 12.8501 12.3671 12.5176 12.3671 12.1455H13.2153C13.2153 12.5322 13.3573 12.8384 13.6415 13.064C13.9286 13.2866 14.311 13.3979 14.7885 13.3979C15.2338 13.3979 15.5751 13.3071 15.8124 13.1255C16.0497 12.9438 16.1684 12.6963 16.1684 12.3828C16.1684 12.0693 16.0585 11.8276 15.8388 11.6577C15.6191 11.4849 15.2206 11.3149 14.6435 11.1479ZM20.0772 11.1479C19.3536 10.9399 18.8263 10.6851 18.4952 10.3833C18.1671 10.0786 18.003 9.70361 18.003 9.2583C18.003 8.75439 18.2037 8.33838 18.6051 8.01025C19.0094 7.6792 19.5338 7.51367 20.1783 7.51367C20.6178 7.51367 21.0089 7.59863 21.3516 7.76855C21.6973 7.93848 21.9639 8.17285 22.1514 8.47168C22.3419 8.77051 22.4371 9.09717 22.4371 9.45166H21.5889C21.5889 9.06494 21.4659 8.76172 21.2198 8.54199C20.9737 8.31934 20.6265 8.20801 20.1783 8.20801C19.7623 8.20801 19.4371 8.30029 19.2027 8.48486C18.9713 8.6665 18.8555 8.91992 18.8555 9.24512C18.8555 9.50586 18.9654 9.72705 19.1851 9.90869C19.4078 10.0874 19.7843 10.2515 20.3145 10.4009C20.8477 10.5503 21.2638 10.7158 21.5626 10.8975C21.8643 11.0762 22.087 11.2856 22.2305 11.5259C22.377 11.7661 22.4503 12.0488 22.4503 12.374C22.4503 12.8926 22.2481 13.3086 21.8438 13.6221C21.4395 13.9326 20.899 14.0879 20.2222 14.0879C19.7828 14.0879 19.3726 14.0044 18.9918 13.8374C18.6109 13.6675 18.3165 13.436 18.1085 13.1431C17.9034 12.8501 17.8009 12.5176 17.8009 12.1455H18.649C18.649 12.5322 18.7911 12.8384 19.0753 13.064C19.3624 13.2866 19.7447 13.3979 20.2222 13.3979C20.6676 13.3979 21.0089 13.3071 21.2462 13.1255C21.4835 12.9438 21.6021 12.6963 21.6021 12.3828C21.6021 12.0693 21.4923 11.8276 21.2725 11.6577C21.0528 11.4849 20.6544 11.3149 20.0772 11.1479ZM24.5969 10.4053H25.2078C25.5915 10.3994 25.8933 10.2983 26.113 10.1021C26.3328 9.90576 26.4426 9.64062 26.4426 9.30664C26.4426 8.55664 26.0691 8.18164 25.322 8.18164C24.9704 8.18164 24.6892 8.28271 24.4783 8.48486C24.2703 8.68408 24.1663 8.94922 24.1663 9.28027H23.3533C23.3533 8.77344 23.5378 8.35303 23.907 8.01904C24.279 7.68213 24.7507 7.51367 25.322 7.51367C25.9255 7.51367 26.3987 7.67334 26.7414 7.99268C27.0842 8.31201 27.2556 8.75586 27.2556 9.32422C27.2556 9.60254 27.1648 9.87207 26.9831 10.1328C26.8044 10.3936 26.5598 10.5884 26.2493 10.7173C26.6008 10.8286 26.8718 11.0132 27.0622 11.271C27.2556 11.5288 27.3523 11.8438 27.3523 12.2158C27.3523 12.79 27.1648 13.2456 26.7898 13.5825C26.4148 13.9194 25.927 14.0879 25.3264 14.0879C24.7258 14.0879 24.2366 13.9253 23.8586 13.6001C23.4836 13.2749 23.2961 12.8457 23.2961 12.3125H24.1135C24.1135 12.6494 24.2234 12.9189 24.4431 13.1211C24.6628 13.3232 24.9573 13.4243 25.3264 13.4243C25.719 13.4243 26.0193 13.3218 26.2273 13.1167C26.4353 12.9116 26.5393 12.6172 26.5393 12.2334C26.5393 11.8613 26.425 11.5757 26.1965 11.3765C25.968 11.1772 25.6384 11.0747 25.2078 11.0688H24.5969V10.4053Z" fill="black"/>
</svg>
