<svg width="43" height="21" viewBox="0 0 43 21" fill="none" xmlns="http://www.w3.org/2000/svg">
<rect width="43" height="21" fill="#FDDFE7"/>
<path d="M12.2761 14H11.4279V11.0425H8.20232V14H7.35857V7.60156H8.20232V10.3525H11.4279V7.60156H12.2761V14ZM18.1537 8.2959H16.097V14H15.2577V8.2959H13.2054V7.60156H18.1537V8.2959ZM20.2827 7.60156L22.3745 12.8223L24.4663 7.60156H25.5605V14H24.7168V11.5083L24.7959 8.81885L22.6953 14H22.0493L19.9531 8.83203L20.0366 11.5083V14H19.1929V7.60156H20.2827ZM27.9884 13.3101H31.0207V14H27.1403V7.60156H27.9884V13.3101ZM32.2357 10.792L32.5609 7.60156H35.8392V8.35303H33.2508L33.0574 10.0977C33.3709 9.91309 33.7269 9.8208 34.1253 9.8208C34.7083 9.8208 35.1712 10.0142 35.514 10.4009C35.8568 10.7847 36.0281 11.3047 36.0281 11.9609C36.0281 12.6201 35.8494 13.1401 35.492 13.521C35.1375 13.8989 34.6409 14.0879 34.0023 14.0879C33.4368 14.0879 32.9754 13.9312 32.618 13.6177C32.2606 13.3042 32.057 12.8706 32.0071 12.3169H32.7762C32.826 12.6831 32.9564 12.96 33.1673 13.1475C33.3782 13.332 33.6566 13.4243 34.0023 13.4243C34.3802 13.4243 34.6761 13.2954 34.89 13.0376C35.1068 12.7798 35.2152 12.4238 35.2152 11.9697C35.2152 11.542 35.098 11.1992 34.8636 10.9414C34.6321 10.6807 34.3231 10.5503 33.9363 10.5503C33.5819 10.5503 33.3035 10.6279 33.1014 10.7832L32.8861 10.959L32.2357 10.792Z" fill="black"/>
</svg>
