<svg width="80" height="21" viewBox="0 0 80 21" fill="none" xmlns="http://www.w3.org/2000/svg">
<rect width="80" height="21" fill="#FDDFE7"/>
<path d="M12.2773 7.35156H13.1255V11.8823C13.1255 12.4946 12.9409 12.9736 12.5717 13.3193C12.2055 13.665 11.7163 13.8379 11.104 13.8379C10.4682 13.8379 9.97311 13.6753 9.61861 13.3501C9.26412 13.0249 9.08688 12.5693 9.08688 11.9834H9.93063C9.93063 12.3496 10.0302 12.6353 10.2295 12.8403C10.4316 13.0454 10.7231 13.1479 11.104 13.1479C11.4526 13.1479 11.7338 13.0381 11.9477 12.8184C12.1645 12.5986 12.2744 12.291 12.2773 11.8955V7.35156ZM17.4606 13.75C17.4137 13.6562 17.3756 13.4893 17.3463 13.249C16.9684 13.6416 16.5172 13.8379 15.9928 13.8379C15.524 13.8379 15.1388 13.7061 14.837 13.4424C14.5382 13.1758 14.3888 12.8389 14.3888 12.4316C14.3888 11.9365 14.5763 11.5527 14.9513 11.2803C15.3292 11.0049 15.8595 10.8672 16.5421 10.8672H17.3331V10.4937C17.3331 10.2095 17.2482 9.98389 17.0782 9.81689C16.9083 9.64697 16.6578 9.56201 16.3268 9.56201C16.0367 9.56201 15.7936 9.63525 15.5973 9.78174C15.401 9.92822 15.3029 10.1055 15.3029 10.3135H14.4855C14.4855 10.0762 14.569 9.84766 14.736 9.62793C14.9059 9.40527 15.1344 9.22949 15.4215 9.10059C15.7115 8.97168 16.0294 8.90723 16.3751 8.90723C16.923 8.90723 17.3522 9.04492 17.6627 9.32031C17.9733 9.59277 18.1344 9.96924 18.1461 10.4497V12.6382C18.1461 13.0747 18.2018 13.4219 18.3131 13.6797V13.75H17.4606ZM16.1114 13.1304C16.3663 13.1304 16.608 13.0645 16.8365 12.9326C17.0651 12.8008 17.2306 12.6294 17.3331 12.4185V11.4429H16.6959C15.6998 11.4429 15.2018 11.7344 15.2018 12.3174C15.2018 12.5723 15.2867 12.7715 15.4567 12.915C15.6266 13.0586 15.8448 13.1304 16.1114 13.1304ZM21.0091 12.647L22.1868 8.99512H23.0174L21.3123 13.75H20.6927L18.97 8.99512H19.8006L21.0091 12.647ZM26.7548 13.75C26.708 13.6562 26.6699 13.4893 26.6406 13.249C26.2626 13.6416 25.8115 13.8379 25.2871 13.8379C24.8183 13.8379 24.433 13.7061 24.1313 13.4424C23.8325 13.1758 23.683 12.8389 23.683 12.4316C23.683 11.9365 23.8705 11.5527 24.2455 11.2803C24.6235 11.0049 25.1538 10.8672 25.8364 10.8672H26.6274V10.4937C26.6274 10.2095 26.5424 9.98389 26.3725 9.81689C26.2026 9.64697 25.9521 9.56201 25.621 9.56201C25.331 9.56201 25.0878 9.63525 24.8915 9.78174C24.6953 9.92822 24.5971 10.1055 24.5971 10.3135H23.7797C23.7797 10.0762 23.8632 9.84766 24.0302 9.62793C24.2001 9.40527 24.4287 9.22949 24.7158 9.10059C25.0058 8.97168 25.3237 8.90723 25.6694 8.90723C26.2172 8.90723 26.6464 9.04492 26.957 9.32031C27.2675 9.59277 27.4287 9.96924 27.4404 10.4497V12.6382C27.4404 13.0747 27.496 13.4219 27.6074 13.6797V13.75H26.7548ZM25.4057 13.1304C25.6606 13.1304 25.9023 13.0645 26.1308 12.9326C26.3593 12.8008 26.5248 12.6294 26.6274 12.4185V11.4429H25.9902C24.9941 11.4429 24.496 11.7344 24.496 12.3174C24.496 12.5723 24.581 12.7715 24.7509 12.915C24.9208 13.0586 25.1391 13.1304 25.4057 13.1304ZM30.8175 10.8979C30.0938 10.6899 29.5665 10.4351 29.2355 10.1333C28.9073 9.82861 28.7433 9.45361 28.7433 9.0083C28.7433 8.50439 28.9439 8.08838 29.3453 7.76025C29.7496 7.4292 30.274 7.26367 30.9186 7.26367C31.358 7.26367 31.7491 7.34863 32.0919 7.51855C32.4376 7.68848 32.7042 7.92285 32.8917 8.22168C33.0821 8.52051 33.1773 8.84717 33.1773 9.20166H32.3292C32.3292 8.81494 32.2062 8.51172 31.9601 8.29199C31.714 8.06934 31.3668 7.95801 30.9186 7.95801C30.5025 7.95801 30.1773 8.05029 29.943 8.23486C29.7115 8.4165 29.5958 8.66992 29.5958 8.99512C29.5958 9.25586 29.7057 9.47705 29.9254 9.65869C30.148 9.8374 30.5245 10.0015 31.0548 10.1509C31.588 10.3003 32.004 10.4658 32.3028 10.6475C32.6046 10.8262 32.8272 11.0356 32.9708 11.2759C33.1173 11.5161 33.1905 11.7988 33.1905 12.124C33.1905 12.6426 32.9884 13.0586 32.5841 13.3721C32.1798 13.6826 31.6393 13.8379 30.9625 13.8379C30.523 13.8379 30.1129 13.7544 29.732 13.5874C29.3512 13.4175 29.0567 13.186 28.8487 12.8931C28.6437 12.6001 28.5411 12.2676 28.5411 11.8955H29.3893C29.3893 12.2822 29.5313 12.5884 29.8155 12.814C30.1026 13.0366 30.485 13.1479 30.9625 13.1479C31.4078 13.1479 31.7491 13.0571 31.9864 12.8755C32.2237 12.6938 32.3424 12.4463 32.3424 12.1328C32.3424 11.8193 32.2325 11.5776 32.0128 11.4077C31.7931 11.2349 31.3946 11.0649 30.8175 10.8979ZM36.1458 13.1743C36.4358 13.1743 36.6892 13.0864 36.906 12.9106C37.1228 12.7349 37.2429 12.5151 37.2664 12.2515H38.0354C38.0208 12.5239 37.927 12.7832 37.7542 13.0293C37.5813 13.2754 37.3499 13.4717 37.0598 13.6182C36.7727 13.7646 36.468 13.8379 36.1458 13.8379C35.4983 13.8379 34.9827 13.6226 34.5989 13.1919C34.218 12.7583 34.0276 12.1665 34.0276 11.4165V11.2803C34.0276 10.8174 34.1126 10.4058 34.2825 10.0454C34.4524 9.68506 34.6956 9.40527 35.012 9.20605C35.3313 9.00684 35.7078 8.90723 36.1414 8.90723C36.6746 8.90723 37.117 9.06689 37.4685 9.38623C37.823 9.70557 38.012 10.1201 38.0354 10.6299H37.2664C37.2429 10.3223 37.1257 10.0703 36.9148 9.87402C36.7068 9.6748 36.449 9.5752 36.1414 9.5752C35.7283 9.5752 35.4075 9.72461 35.179 10.0234C34.9534 10.3193 34.8406 10.7485 34.8406 11.311V11.4648C34.8406 12.0127 34.9534 12.4346 35.179 12.7305C35.4046 13.0264 35.7268 13.1743 36.1458 13.1743ZM41.3378 9.72461C41.2148 9.7041 41.0815 9.69385 40.9379 9.69385C40.4047 9.69385 40.0429 9.9209 39.8525 10.375V13.75H39.0395V8.99512H39.8305L39.8437 9.54443C40.1103 9.11963 40.4882 8.90723 40.9775 8.90723C41.1357 8.90723 41.2558 8.92773 41.3378 8.96875V9.72461ZM43.0626 13.75H42.2496V8.99512H43.0626V13.75ZM42.1837 7.73389C42.1837 7.60205 42.2232 7.49072 42.3023 7.3999C42.3844 7.30908 42.5045 7.26367 42.6627 7.26367C42.8209 7.26367 42.941 7.30908 43.023 7.3999C43.1051 7.49072 43.1461 7.60205 43.1461 7.73389C43.1461 7.86572 43.1051 7.97559 43.023 8.06348C42.941 8.15137 42.8209 8.19531 42.6627 8.19531C42.5045 8.19531 42.3844 8.15137 42.3023 8.06348C42.2232 7.97559 42.1837 7.86572 42.1837 7.73389ZM48.4744 11.4253C48.4744 12.1489 48.3088 12.7319 47.9778 13.1743C47.6467 13.6167 47.1985 13.8379 46.633 13.8379C46.0559 13.8379 45.6018 13.6548 45.2707 13.2886V15.5781H44.4578V8.99512H45.2004L45.24 9.52246C45.571 9.1123 46.031 8.90723 46.6199 8.90723C47.1912 8.90723 47.6423 9.12256 47.9734 9.55322C48.3074 9.98389 48.4744 10.583 48.4744 11.3506V11.4253ZM47.6614 11.333C47.6614 10.7969 47.5471 10.3735 47.3186 10.063C47.0901 9.75244 46.7766 9.59717 46.3782 9.59717C45.886 9.59717 45.5168 9.81543 45.2707 10.252V12.5239C45.5139 12.9575 45.886 13.1743 46.387 13.1743C46.7766 13.1743 47.0857 13.0205 47.3142 12.7129C47.5456 12.4023 47.6614 11.9424 47.6614 11.333ZM50.7045 7.84375V8.99512H51.5922V9.62354H50.7045V12.5723C50.7045 12.7627 50.744 12.9062 50.8231 13.0029C50.9022 13.0967 51.037 13.1436 51.2274 13.1436C51.3212 13.1436 51.4501 13.126 51.6142 13.0908V13.75C51.4003 13.8086 51.1923 13.8379 50.9901 13.8379C50.6269 13.8379 50.3529 13.728 50.1684 13.5083C49.9838 13.2886 49.8915 12.9766 49.8915 12.5723V9.62354H49.0258V8.99512H49.8915V7.84375H50.7045ZM58.7024 10.7925H55.9294V13.0601H59.1506V13.75H55.0857V7.35156H59.1067V8.0459H55.9294V10.1025H58.7024V10.7925ZM62.1762 10.8979C61.4525 10.6899 60.9252 10.4351 60.5941 10.1333C60.266 9.82861 60.1019 9.45361 60.1019 9.0083C60.1019 8.50439 60.3026 8.08838 60.704 7.76025C61.1083 7.4292 61.6327 7.26367 62.2772 7.26367C62.7167 7.26367 63.1078 7.34863 63.4506 7.51855C63.7963 7.68848 64.0629 7.92285 64.2504 8.22168C64.4408 8.52051 64.536 8.84717 64.536 9.20166H63.6879C63.6879 8.81494 63.5648 8.51172 63.3187 8.29199C63.0726 8.06934 62.7255 7.95801 62.2772 7.95801C61.8612 7.95801 61.536 8.05029 61.3016 8.23486C61.0702 8.4165 60.9545 8.66992 60.9545 8.99512C60.9545 9.25586 61.0643 9.47705 61.2841 9.65869C61.5067 9.8374 61.8832 10.0015 62.4135 10.1509C62.9467 10.3003 63.3627 10.4658 63.6615 10.6475C63.9633 10.8262 64.1859 11.0356 64.3295 11.2759C64.476 11.5161 64.5492 11.7988 64.5492 12.124C64.5492 12.6426 64.3471 13.0586 63.9428 13.3721C63.5385 13.6826 62.9979 13.8379 62.3212 13.8379C61.8817 13.8379 61.4716 13.7544 61.0907 13.5874C60.7098 13.4175 60.4154 13.186 60.2074 12.8931C60.0023 12.6001 59.8998 12.2676 59.8998 11.8955H60.7479C60.7479 12.2822 60.89 12.5884 61.1742 12.814C61.4613 13.0366 61.8436 13.1479 62.3212 13.1479C62.7665 13.1479 63.1078 13.0571 63.3451 12.8755C63.5824 12.6938 63.7011 12.4463 63.7011 12.1328C63.7011 11.8193 63.5912 11.5776 63.3715 11.4077C63.1517 11.2349 62.7533 11.0649 62.1762 10.8979ZM68.7041 7.34717V8.03711H68.5547C67.9219 8.04883 67.418 8.23633 67.043 8.59961C66.668 8.96289 66.4512 9.47412 66.3926 10.1333C66.7295 9.74658 67.1895 9.55322 67.7725 9.55322C68.3291 9.55322 68.773 9.74951 69.104 10.1421C69.438 10.5347 69.605 11.0415 69.605 11.6626C69.605 12.3218 69.4248 12.8491 69.0645 13.2446C68.7071 13.6401 68.2266 13.8379 67.6231 13.8379C67.0108 13.8379 66.5142 13.6035 66.1333 13.1348C65.7525 12.6631 65.562 12.0566 65.562 11.3154V11.0034C65.562 9.82568 65.8125 8.92627 66.3135 8.30518C66.8174 7.68115 67.566 7.36182 68.5591 7.34717H68.7041ZM67.6363 10.23C67.3579 10.23 67.1016 10.3135 66.8672 10.4805C66.6329 10.6475 66.4703 10.8569 66.3794 11.1089V11.4077C66.3794 11.9351 66.4981 12.3599 66.7354 12.6821C66.9727 13.0044 67.2686 13.1655 67.6231 13.1655C67.9893 13.1655 68.2764 13.0308 68.4844 12.7612C68.6954 12.4917 68.8008 12.1387 68.8008 11.7021C68.8008 11.2627 68.6939 10.9082 68.48 10.6387C68.2691 10.3662 67.9878 10.23 67.6363 10.23Z" fill="black"/>
</svg>
